<svg xmlns="http://www.w3.org/2000/svg" width="256" height="256"><path fill="#1976D2" fill-opacity=".016" fill-rule="evenodd" d="M0 128.004v128.004l128.25-.254 128.25-.254.254-127.75L257.008 0H0zm.485.496c0 70.4.119 99.053.265 63.672s.146-92.98 0-128S.485 58.1.485 128.5"/><path fill="#1976D2" fill-opacity=".211" fill-rule="evenodd" d="M.461 1.25C.2 1.938.101 59.425.243 129L.5 255.5l127.439.254c101.29.202 127.602-.004 128.234-1 .438-.69.803-58.291.812-128.004L257 0H128.969C27.464 0 .839.259.461 1.25M.485 128c0 70.125.119 98.813.265 63.75.146-35.062.146-92.437 0-127.5C.604 29.188.485 57.875.485 128M210.02 44.476c-.789.95-.865 1.524-.201 1.524 1.208 0 2.617-1.897 1.924-2.591-.252-.251-1.027.229-1.723 1.067M59.548 88.126c-1.447 1.719-2.387 3.369-2.089 3.666.298.298.654.352.791.12.138-.232 1.572-1.882 3.187-3.667S63.88 85 63.276 85s-2.282 1.407-3.728 3.126m-19.16 7.854c-1.161.469-3.074 2.077-4.25 3.572-2.12 2.695-2.138 3.139-2.138 53.472 0 49.951.033 50.792 2.076 53.115 1.142 1.299 1.786 1.791 1.431 1.095-1.079-2.118-.552-103.281.549-105.338.544-1.018 1.84-2.305 2.879-2.861 1.219-.653 28.795-1.06 77.727-1.148 78.876-.142 100.295-.573 96.838-1.95-2.705-1.077-172.443-1.035-175.112.043M46.2 110.2c-.89.89-1.2 10.813-1.2 38.458v37.258l30.25.292c16.638.161 31.037-.061 32-.493 1.491-.669 1.75-2.209 1.75-10.4V165.7l-3.041 4.198c-3.476 4.799-10.573 9.649-16.444 11.238-2.208.598-6.724.872-10.034.609-24.911-1.977-36.787-32.011-20.004-50.588 8.668-9.594 24.049-12.616 35.131-6.901 2.809 1.448 7.196 4.957 9.75 7.797l4.642 5.163V109H78.2c-22.622 0-31.119.319-32 1.2M167 121.875c0 2.269.213 4.125.473 4.125 1.573 0 9.34-4.494 8.926-5.164-.277-.447.15-.563.948-.256s1.748.076 2.111-.512c.419-.678-.593-1.068-2.774-1.068-1.889 0-4.84-.281-6.559-.625-3.096-.619-3.125-.587-3.125 3.5m-20.921 18.708c.048 1.165.285 1.402.604.605.289-.722.253-1.585-.079-1.917s-.568.258-.525 1.312m39.13 20.475c-10.154 2.179-13.702 16.308-5.752 22.906 1.369 1.136 1.493 1.069.897-.483-.57-1.487-.301-1.7 1.54-1.219 2.163.566 2.154.512-.291-1.754-1.387-1.286-2.816-3.51-3.176-4.942-.801-3.191 1.125-8.139 3.933-10.106 2.733-1.914 8.619-1.864 11.419.098 1.224.857 2.674 1.28 3.223.941 3.927-2.427-5.522-6.787-11.793-5.441m-48.336 1.626c-7.051 4.376-8.287 14.614-2.505 20.745 1.853 1.964 3.927 3.571 4.611 3.571s.18-.885-1.118-1.967c-2.534-2.111-1.916-2.668 1.144-1.03 1.141.61 2.098.639 2.449.072.316-.512-.32-1.215-1.413-1.562-6.176-1.96-7.938-10.77-3.118-15.59 3.979-3.979 9.124-4.03 13.024-.13 1.536 1.537 3.257 2.639 3.823 2.45.567-.189 1.489.917 2.051 2.457.788 2.162 1.038 2.344 1.096.8.114-3.013-3.447-8.206-6.823-9.951-3.864-1.998-9.883-1.937-13.221.135m1.999 7.066c-1.269 1.619-1.222 1.64.628.283 1.1-.807 2.188-1.594 2.417-1.75s-.054-.283-.628-.283-1.662.787-2.417 1.75m44.156-.284c-.669.807-1.062 1.89-.873 2.408.19.517 1.154-.142 2.142-1.467 1.916-2.567.78-3.409-1.269-.941"/><path fill="#1976D2" fill-opacity=".227" fill-rule="evenodd" d="M114.156 24.463c-12.952 3.134-31.177 16.106-28.531 20.307 1.913 3.038 4.252 2.493 9.629-2.242 18.83-16.585 47.968-16.56 65.732.056 5.167 4.833 8.332 5.559 10.07 2.311.997-1.862.511-2.698-4.215-7.25-6.215-5.987-15.055-10.945-23.383-13.114-7.067-1.841-21.833-1.875-29.302-.068m5.952 13.619c-2.415.474-7.14 2.155-10.5 3.734-10.576 4.973-15.544 11.543-10.691 14.139 1.561.836 2.707.365 6.18-2.536 14.448-12.071 33.128-11.818 47.318.64 2.923 2.567 3.82 2.886 5.537 1.967 3.101-1.66 2.475-4.408-1.907-8.366-9.486-8.57-22.885-12.142-35.937-9.578M208 42c-2.435 2.435-2.563 6.238-.337 10.007 1.604 2.715 1.512 3.366-2.561 18.154-2.324 8.437-4.479 16.209-4.789 17.273-.511 1.752-.696 1.683-1.964-.738-3.052-5.825-1.451-5.696-70.931-5.696-61.683 0-63.782.062-66.88 1.976-1.759 1.087-4.022 3.508-5.03 5.379-1.777 3.299-2.051 3.417-9.023 3.864-7.719.496-10.574 1.853-13.622 6.476-1.739 2.637-1.85 5.882-1.853 54.305-.002 50.126.052 51.59 2.043 54.856 1.125 1.845 3.374 3.856 4.996 4.469 3.934 1.484 3.719 2.296-.799 3.023-5.861.944-12.75 4.808-12.75 7.152 0 9.568 64.143 16.798 128.576 14.493 39.794-1.424 65.189-4.967 76.174-10.627 5.93-3.056 1.582-8.141-8.982-10.505-5.715-1.279-6.624-2.304-2.879-3.244 1.313-.329 3.8-2.207 5.525-4.172l3.137-3.573-.275-52.356-.276-52.356-2.5-2.675C219.179 93.397 215.661 92 209.188 92h-5.912l5.177-18.659c4.126-14.872 5.577-18.808 7.147-19.389 4.764-1.762 6.326-8.166 2.912-11.939C216.108 39.357 210.65 39.35 208 42m1.074 2.411c-.801.965-.839 1.616-.123 2.059 1.397.863 3.049-.237 3.049-2.029 0-1.836-1.415-1.851-2.926-.03m-89.595 8.329c-9.313 3.334-14.246 8.426-11.439 11.808 1.729 2.083 3.385 1.807 6.9-1.151 7.901-6.648 18.821-6.365 27.917.722 1.783 1.39 2.817 1.59 4.25.824 2.675-1.432 2.349-4.142-.857-7.142-6.739-6.304-17.575-8.353-26.771-5.061M210 58c-.622 2.311-.936 4.398-.696 4.637.239.239.92-1.479 1.514-3.819s.907-4.426.697-4.637S210.622 55.689 210 58m-2.917 10.583c-.645 2.563-.986 4.848-.756 5.077s.944-1.68 1.59-4.243c.645-2.563.986-4.848.756-5.077s-.944 1.68-1.59 4.243M125 65.706c-2.624.959-6 4.579-6 6.433 0 2.709 3.309 4.097 5.612 2.354 2.199-1.665 5.996-1.936 6.888-.493 1.14 1.845 5.329 1.115 6.015-1.048 1.387-4.368-7.04-9.247-12.515-7.246m78.095 17.389c-1.222 4.461-2.04 8.293-1.818 8.516.223.222 1.405-3.245 2.628-7.706 1.222-4.461 2.04-8.293 1.818-8.516-.223-.222-1.405 3.245-2.628 7.706M60.239 87.42c-2.053 1.881-3.36 3.793-2.904 4.248s1.768-.462 2.917-2.04c1.15-1.578 3.475-3.472 5.169-4.209 2.679-1.166 2.784-1.346.814-1.38-1.245-.021-3.944 1.5-5.996 3.381m37.583 4.33c16.677.154 43.677.153 60-.001s2.678-.28-30.322-.28-46.355.127-29.678.281M39.5 96.158c-1.1.606-2.777 2.056-3.728 3.222-1.586 1.946-1.729 6.318-1.75 53.405-.02 45.55.159 51.561 1.593 53.75 1.909 2.913 3.933 3.357 2.42.531-1.492-2.789-1.39-4.821.165-3.266.915.915 21.806 1.2 87.927 1.2h86.728l2.081-2.646c2.056-2.614 2.079-3.284 1.823-54.75L216.5 95.5l-87.5-.223c-62.288-.158-88.076.095-89.5.881M44 108c-1.936 1.936-2 3.333-2 43.365 0 40.334.052 41.431 2.073 44L46.145 198h83.228c63.399 0 83.513-.286 84.427-1.2.896-.896 1.2-12.044 1.2-44 0-41.467-.062-42.862-2-44.8-1.968-1.968-3.333-2-84.5-2s-82.532.032-84.5 2m1.667 1.667c-.367.366-.667 18.955-.667 41.309 0 30.97.298 41.049 1.252 42.354 1.135 1.552 4.513 1.734 36 1.941L117 195.5V109H81.667c-19.434 0-35.634.3-36 .667M145 122c0 2.2.45 4 1 4s1-1.8 1-4-.45-4-1-4-1 1.8-1 4m5-.846c0 2.864.152 2.973 3.25 2.32 3.994-.842 9.75-3.448 9.75-4.415 0-.392-2.925-.757-6.5-.811l-6.5-.098zm16 .802V126h14.558l-.093-3.75-.093-3.75-7.186-.294-7.186-.294zm17.667-3.289c-.367.366-.667 2.166-.667 4 0 2.693.393 3.333 2.05 3.333 3.57 0 11.95-5.017 11.95-7.155 0-.992-12.354-1.158-13.333-.178m-106.808 3.418c-9.929 1.537-17.342 7.089-21.943 16.435-2.937 5.965-3.14 7.029-2.711 14.214.727 12.17 6.566 21.024 17.372 26.343 5.993 2.95 17.618 3.274 23.652.659 5.236-2.269 12.935-9.771 15.69-15.289 10.534-21.091-8.343-46.034-32.06-42.362m53.22 2.498c.048 1.165.285 1.402.604.605.289-.722.253-1.585-.079-1.917s-.568.258-.525 1.312m-57.17.971c-6.282 1.935-13.126 8.198-15.832 14.489-4.381 10.185-1.98 24.002 5.372 30.909l2.493 2.342 1.941-2.397c1.811-2.235 2.605-2.397 11.779-2.397 9.005 0 10.247-.24 14.666-2.838 2.931-1.723 5.975-4.647 7.75-7.445 3.834-6.047 3.686-6.852-.756-4.107-3.597 2.223-3.701 2.23-4.75.34-.59-1.064-2.567-3.4-4.393-5.192-2.887-2.832-3.999-3.258-8.5-3.254-6.365.004-11.055 2.619-13.357 7.447l-1.652 3.465-4.085-2.493a1370 1370 0 0 0-5.439-3.306c-1.128-.677-1.099-1.299.167-3.715 1.961-3.739 8.265-9.718 12.491-11.845 9.012-4.538 21.009-2.476 28.619 4.92 4.324 4.202 4.563 4.308 3.957 1.748-3.537-14.923-15.283-21.35-30.471-16.671M71.5 138.377c-4.929 2.325-8.223 5.239-10.274 9.088-.883 1.658-.573 2.254 1.976 3.804 1.663 1.011 3.109 1.702 3.213 1.535l1.902-3.041c3.656-5.845 14.653-8.592 21.047-5.257 3.784 1.973 4.129 1.917 6.03-.985 1.615-2.464 1.596-2.492-3.352-5-6.544-3.316-13.709-3.366-20.542-.144m66.75.367-8.25.337v6.811l5.25-1.531c2.887-.842 6.262-2.178 7.5-2.969 2.062-1.318 2.26-1.269 2.375.585.202 3.272.335 3.816 1.125 4.606.412.413.75-1.35.75-3.916 0-2.567-.113-4.575-.25-4.463-.137.111-3.963.355-8.5.54M150 143v4h14v-8h-14zm33-2.082c0 5.495 3.166 6.663 7 2.582 1.292-1.375 1.933-2.545 1.424-2.6-.508-.055.201-.46 1.576-.9 1.858-.595.895-.826-3.75-.9-5.529-.089-6.25.121-6.25 1.818M201 143c0 2.2.45 4 1 4s1-1.8 1-4-.45-4-1-4-1 1.8-1 4m-33.921-.417c.048 1.165.285 1.402.604.605.289-.722.253-1.585-.079-1.917s-.568.258-.525 1.312m-90.624 10.872C74.907 155.002 74 157.052 74 159s.907 3.998 2.455 5.545C81.577 169.668 90 165.983 90 158.618c0-6.814-8.612-10.097-13.545-5.163m61.873 8.483c-10.127 4.598-10.9 17.465-1.43 23.792 8.64 5.772 20.102-.869 20.102-11.648 0-5.874-2.223-9.527-7.288-11.98-5.278-2.554-6.093-2.566-11.384-.164m43.872-.149c-6.735 3.702-9.339 12.781-5.52 19.246 1.8 3.047 7.78 6.838 8.947 5.671.389-.388.011-.706-.838-.706s-2.162-.749-2.917-1.664c-1.24-1.504-1.162-1.552.812-.5 3.457 1.842 9.723 1.419 12.609-.852 2.771-2.179 5.234-8.168 4.33-10.525-.308-.803-.066-1.459.538-1.459.716 0 .917 1.617.577 4.635-.321 2.846-.184 4.1.354 3.25 1.512-2.388.982-8.252-1.048-11.581-3.929-6.444-11.753-8.862-17.844-5.515m-43.312 3.711c-5.646 3.068-6.154 11.75-.907 15.486 4.333 3.086 9.297 2.661 12.43-1.063 4.284-5.091 3.219-11.511-2.391-14.413-3.582-1.852-5.739-1.854-9.132-.01m43.189 1.089c-2.562 2.155-3.077 3.312-3.077 6.911s.515 4.756 3.077 6.911c4.304 3.622 9.169 3.497 13-.334 4.737-4.737 3.775-11.551-2.057-14.567-4.222-2.183-7.444-1.866-10.943 1.079m-42.648 1.84c-1.059.774-1.578 1.755-1.154 2.18.425.424 1.523.022 2.439-.895 2.162-2.161 1.212-3.111-1.285-1.285m42.771.771c-1.393 1.393-1.616 4.8-.315 4.8.844 0 4.115-4.343 4.115-5.465 0-.996-2.592-.543-3.8.665m-27.927 4.679c0 7.72-6.469 13.072-13.398 11.085-4.475-1.283-4.863-1.172-1.875.536 3.469 1.983 6.94 1.834 10.701-.46 5.047-3.076 7.799-10.125 5.42-13.878-.545-.86-.848.111-.848 2.717m43.6 8.774c-.755.91-2.722 2.242-4.373 2.961-1.809.789-2.312 1.323-1.266 1.347 1.557.035 9.15-5.861 7.638-5.932-.345-.016-1.245.715-1.999 1.624m-10.06 5.03c.721.289 1.584.253 1.916-.079s-.258-.568-1.312-.525c-1.165.048-1.402.285-.604.604"/><path fill="#1976D2" fill-opacity=".536" fill-rule="evenodd" d="M208.455 42.455c-2.968 2.967-3.106 5.448-.487 8.777l1.967 2.501-4.028 14.74c-2.216 8.106-3.845 14.922-3.622 15.146.224.223 2.123-6.012 4.221-13.856s4.249-14.713 4.783-15.263c.629-.649.749-.035.34 1.75-1.47 6.427-1.446 7.876.05 3 .886-2.888 2.142-5.25 2.791-5.25 2.068 0 5.53-4.534 5.53-7.242 0-2.92-4.077-6.758-7.18-6.758-1.051 0-3.015 1.105-4.365 2.455m1.768.102c-2.896 2.028-3.061 7.042-.261 7.931 4.71 1.495 9.323-5.344 5.494-8.144-2.311-1.69-2.53-1.681-5.233.213m-2.14 27.026c-.645 2.563-.986 4.848-.756 5.077s.944-1.68 1.59-4.243c.645-2.563.986-4.848.756-5.077s-.944 1.68-1.59 4.243m-4.071 14.873c-1.256 4.672-2.655 8.265-3.109 7.984s-.394-1.649.135-3.041c1.235-3.247 1.142-5.664-.099-2.569l-.934 2.33-2.482-2.95c-1.365-1.623-3.734-3.469-5.263-4.102-2.023-.838-19.982-1.078-65.849-.88l-63.068.272-3.525 2.689c-1.939 1.479-4.076 4.021-4.75 5.648-1.19 2.871-1.458 2.969-9.045 3.313-8.684.395-11.219 1.799-13.661 7.568-1.997 4.717-1.997 99.847 0 104.564 2.173 5.135 5.176 7.151 11.489 7.714 5.401.482 5.664.635 5.987 3.504.528 4.679 1.81 5.5 8.584 5.5 7.05 0 8.578-1.016 8.578-5.7V213h122v3.429c0 5.038 2.1 6.571 9 6.571 6.888 0 9-1.533 9-6.535 0-3.36.041-3.391 4.442-3.303 5.622.113 10.503-2.629 12.806-7.196 1.594-3.16 1.749-7.82 1.75-52.748.002-54.42.002-54.418-6.188-58.192-2.454-1.497-5.055-2.019-10.06-2.022-3.713-.002-6.75-.313-6.75-.69 0-.378.935-4.018 2.077-8.09 1.143-4.071 1.884-7.596 1.648-7.833-.237-.236-1.458 3.393-2.713 8.065m-140.992.296c-3.48 1.748-7.053 6.548-5.804 7.797.364.365 2.42-1.185 4.568-3.443L65.69 85h62.596c34.428 0 62.805.338 63.06.75s-27.281.624-61.191.47-62.686-.028-63.946.279c-1.366.334-2.01 1.014-1.595 1.685.413.668.247.848-.409.443-.608-.376-1.593.23-2.19 1.345-1.452 2.714-.431 2.556 3.194-.495l2.999-2.523 59.671.273 59.671.273 2.86 2.25c1.573 1.237 3.685 2.25 4.693 2.25 1.492 0 1.671-.418.961-2.25-.48-1.237-1.398-2.126-2.042-1.975s-.905-.156-.58-.682-.416-1.662-1.648-2.525c-1.975-1.383-9.499-1.568-63.767-1.566-56.581.001-61.807.142-65.007 1.75m5.23 5.91c-4.898 1.977 4.425 2.335 60 2.306 54.074-.028 61.023-.204 59.309-1.5-1.658-1.254-10.413-1.456-60-1.389-31.933.043-58.621.306-59.309.583m-30.033 5.899c-5.22 3.656-5.217 3.62-5.215 56.139.001 44.462.157 49.11 1.75 52.286.961 1.917 2.873 4.052 4.248 4.744 1.963.988 21.365 1.206 90.332 1.014l87.832-.244 2.918-3.266 2.918-3.266V102.07l-3.104-3.535L216.793 95h-88.174c-78.283 0-88.424.175-90.402 1.561M44.2 108.2c-.895.895-1.2 11.925-1.2 43.461 0 42.187.004 42.265 2.189 44.3 2.165 2.018 3.05 2.039 83.918 2.039 44.951 0 82.441-.273 83.311-.607 1.409-.541 1.582-5.38 1.582-44.3 0-32.65-.303-43.996-1.2-44.893-1.738-1.738-166.862-1.738-168.6 0m1.467 1.467c-.367.366-.667 19.197-.667 41.845 0 38.623.113 41.281 1.829 42.833 1.627 1.473 5.641 1.655 36.5 1.655H118v-87H82.167c-19.709 0-36.134.3-36.5.667M120 150v41l9.25-.016 9.25-.017-3.98-2.254c-14.917-8.449-8.808-32.784 8.286-33.007 5.948-.077 11.545 2.576 15 7.11 2.395 3.142 2.694 4.405 2.694 11.36V182h5.857c5.175 0 5.776-.204 5.165-1.75-3.368-8.516.517-18.633 8.798-22.916 3.964-2.049 13.011-2.002 16.196.084 3.453 2.263 3.842 2.082 6.266-2.906l2.181-4.489-38.732-.261-38.731-.262v-13l39.179-.262c38.937-.259 39.183-.248 39.84 1.823.364 1.146.387 3.176.052 4.511s-.224 2.428.246 2.428c3.052 0 6.898-33.299 4.054-35.101-.754-.478-21.508-.875-46.121-.884L120 109zm17.203-34.285-10.297.356.297 6.214.297 6.215h79l.307-5.393c.169-2.966-.056-5.744-.5-6.174-.893-.864-52.853-1.78-69.104-1.218M129 122v4h18v-8h-18zm20.81-1.16c-.698 4.754-.125 5.16 7.273 5.16H164v-8h-6.887c-6.8 0-6.891.035-7.303 2.84m16.383 1.41.307 4.25h14l.307-4.25.308-4.25h-15.23zM183 122v4h15v-8h-15zm17 0c0 3.333.333 4 2 4s2-.667 2-4-.333-4-2-4-2 .667-2 4m-128.676 1.578c-5.769 2.127-12.9 8.682-16.096 14.799-3.636 6.956-3.776 17.634-.334 25.35 2.712 6.077 9.366 12.616 15.682 15.41 6.035 2.669 16.765 2.691 22.745.045 10.806-4.78 16.904-13.963 17.51-26.367.32-6.552.012-8.469-2.087-13-2.926-6.316-8.269-12.015-14.05-14.989-5.465-2.811-17.401-3.449-23.37-1.248m.355 1.965c-5.776 2.119-10.95 6.713-14.23 12.633-2.583 4.663-2.947 6.318-2.932 13.324.021 9.436 1.974 14 8.524 19.918 6.04 5.457 11.264 7.534 19.013 7.56 16.099.054 28.016-13.063 26.705-29.395-.271-3.378-1.415-7.949-2.542-10.157-2.526-4.952-9.835-11.822-14.772-13.884-4.533-1.894-14.602-1.894-19.766.001m-1.797 11.25C64.717 139.491 58 146.665 58 149.483c0 1.2 8.816 7.158 9.405 6.355.136-.186 1.233-1.978 2.437-3.982 2.902-4.829 8.06-7.24 14.05-6.566 3.923.442 5.243 1.22 8.884 5.24l4.276 4.721 4.335-2.3c5.434-2.883 5.172-4.534-1.818-11.481-5.686-5.651-10.27-7.47-18.821-7.47-4.099 0-6.895.719-10.866 2.793m5-.469c-6.027 2.248-10.663 5.585-12.991 9.352l-2.209 3.575 2.409 1.852c1.325 1.019 2.765 1.863 3.199 1.875.435.012 2.46-1.731 4.5-3.874 7.285-7.65 17.132-7.636 24.449.036 3.657 3.835 3.794 3.885 6.25 2.275 3.091-2.025 3.091-2.097-.001-6.648-5.083-7.479-17.347-11.523-25.606-8.443M129 142.5v4.5h18v-9h-18zm20.525-3.54c-.326.527-.486 2.552-.355 4.5l.239 3.54H164v-9h-6.941c-3.818 0-7.208.432-7.534.96M166 142.5v4.5h15v-9h-15zm17 0v4.5h15v-9h-15zm17 0c0 3.833.296 4.5 2 4.5s2-.667 2-4.5-.296-4.5-2-4.5-2 .667-2 4.5M77.389 153.342c-1.945 1.673-2.722 3.288-2.722 5.658 0 3.432 3.906 8 6.842 8 2.918 0 6.401-2.368 7.545-5.13 1.527-3.686-.149-8.137-3.669-9.74-3.571-1.627-4.936-1.42-7.996 1.212m1.182 2.229c-1.578 1.579-2.09 4.577-.971 5.695 1.095 1.096 5.498-1.569 4.95-2.996-.29-.756-.082-1.099.461-.763.544.336.989-.316.989-1.448 0-2.507-3.128-2.788-5.429-.488m58.929 6.29c-5.152 3.182-6.811 5.8-7.225 11.404-.698 9.454 5.434 15.402 14.937 14.489 14.505-1.394 17.123-21.516 3.473-26.687-4.124-1.563-7.792-1.303-11.185.794m43.804.095c-4.565 2.784-6.651 6.491-6.733 11.968-.129 8.625 7.521 15.134 16.143 13.735 5.131-.833 8.228-3.273 10.409-8.203 5.41-12.231-8.425-24.447-19.819-17.5m3.053 2.998c-5.515 2.323-7.139 10.354-2.943 14.551 3.173 3.173 6.904 4.02 10.728 2.436 3.566-1.477 6.216-6.665 5.29-10.355-1.295-5.162-8.223-8.676-13.075-6.632m-40.463 1.007c5.176.838 7.106 3.031 7.106 8.075 0 5.918-4.836 8.895-10.562 6.502-5.521-2.306-6.652-7.964-2.607-13.038 1.253-1.571 1.078-1.523-.818.228-3.671 3.389-3.326 8.71.803 12.399 5.007 4.474 10.726 3.592 13.674-2.107 2.136-4.131 1.888-6.417-1.079-9.943-2.176-2.587-3.252-3.057-6.75-2.952l-4.161.125zm40.606.153c-5.071 2.877-6.125 9.011-2.186 12.712 3.025 2.841 8.931 2.929 11.686.174 2.501-2.501 2.628-8.022.25-10.886-2.117-2.55-7.012-3.554-9.75-2m14.064 13.593c-.542 1.425-.428 1.54.56.56.684-.679.991-1.486.683-1.793-.308-.308-.867.247-1.243 1.233M53.184 216.75c.174 1.512.879 2.705 1.566 2.65s3.05-.167 5.25-.25c3.56-.133 4-.425 4-2.65 0-2.367-.296-2.5-5.566-2.5-5.483 0-5.562.041-5.25 2.75M192 217c0 2.659.337 3 2.965 3 1.908 0 3.334-.69 4-1.934 1.756-3.282 1.184-4.066-2.965-4.066-3.778 0-4 .167-4 3m-135-1.094c0 .499.9.671 2 .384s2-.696 2-.907c0-.21-.9-.383-2-.383s-2 .408-2 .906"/></svg>